<svg xmlns="http://www.w3.org/2000/svg" width="380" height="80" viewBox="0 0 380 80" fill="none">
  <defs>
    <linearGradient id="wm-bg" x1="0" y1="0" x2="72" y2="72" gradientUnits="userSpaceOnUse">
      <stop offset="0%" stop-color="#7c5af0"/>
      <stop offset="100%" stop-color="#3d6ef5"/>
    </linearGradient>
    <linearGradient id="wm-text" x1="204" y1="15" x2="380" y2="65" gradientUnits="userSpaceOnUse">
      <stop offset="0%" stop-color="#7c5af0"/>
      <stop offset="100%" stop-color="#3d6ef5"/>
    </linearGradient>
  </defs>
  <!-- Logo mark -->
  <rect x="4" y="4" width="72" height="72" rx="16" fill="url(#wm-bg)"/>
  <circle cx="23" cy="52" r="13" stroke="white" stroke-width="3.2" fill="none"/>
  <circle cx="57" cy="22" r="8.5" fill="white"/>
  <line x1="36.5" y1="39" x2="49.5" y2="29" stroke="white" stroke-width="3.2" stroke-linecap="round"/>
  <!-- "Thin" in ink (#0d0d14) — for light backgrounds -->
  <path d="M20 647H702V536H20ZM295 550H428V0H295Z" transform="translate(92,58) scale(0.048,-0.048)" fill="#0d0d14"/>
  <path d="M514 0V273Q514 314 500.0 341.0Q486 368 455.5 382.0Q425 396 374 396Q325 396 285.0 377.5Q245 359 220.0 329.5Q195 300 192 267L191 322Q196 355 214.0 388.0Q232 421 262.0 448.0Q292 475 334.5 491.5Q377 508 430 508Q476 508 515.0 496.5Q554 485 583.0 461.0Q612 437 628.0 401.5Q644 366 644 318V0ZM69 0V697H199V0Z" transform="translate(126.16,58) scale(0.048,-0.048)" fill="#0d0d14"/>
  <path d="M209 715V601H58V715ZM68 497H198V0H68Z" transform="translate(159.35,58) scale(0.048,-0.048)" fill="#0d0d14"/>
  <path d="M60 497H190V0H60ZM421 508Q467 508 506.0 496.0Q545 484 574.0 459.0Q603 434 619.0 395.5Q635 357 635 304V0H505V281Q505 344 474.5 373.5Q444 403 375 403Q323 403 281.0 383.0Q239 363 213.0 332.5Q187 302 183 269L182 320Q187 355 205.0 388.0Q223 421 253.5 448.5Q284 476 326.0 492.0Q368 508 421 508Z" transform="translate(171.72,58) scale(0.048,-0.048)" fill="#0d0d14"/>
  <!-- "vite" in gradient -->
  <path d="M334 85H287L469 497H611L372 0H249L15 497H158Z" transform="translate(204.48,58) scale(0.048,-0.048)" fill="url(#wm-text)"/>
  <path d="M209 715V601H58V715ZM68 497H198V0H68Z" transform="translate(234.08,58) scale(0.048,-0.048)" fill="url(#wm-text)"/>
  <path d="M25 497H411V396H25ZM153 633H283V0H153Z" transform="translate(246.44,58) scale(0.048,-0.048)" fill="url(#wm-text)"/>
  <path d="M513 165H639Q631 114 596.5 74.0Q562 34 503.0 11.0Q444 -12 359 -12Q264 -12 191.0 18.5Q118 49 77.0 107.0Q36 165 36 247Q36 329 76.0 387.5Q116 446 187.5 477.0Q259 508 355 508Q453 508 518.0 477.0Q583 446 614.5 383.5Q646 321 641 224H167Q172 186 195.5 155.0Q219 124 259.5 106.0Q300 88 356 88Q418 88 459.5 109.5Q501 131 513 165ZM349 409Q277 409 232.0 377.5Q187 346 174 300H512Q507 350 464.5 379.5Q422 409 349 409Z" transform="translate(266.77,58) scale(0.048,-0.048)" fill="url(#wm-text)"/>
</svg>
